<svg version="1.1" xmlns="http://www.w3.org/2000/svg" x="0px" y="0px"
  viewBox="0 0 120 120" style="enable-background:new 0 0 120 120;" xml:space="preserve">
  <style type="text/css">
    .st0{fill:#D60000;}
    .st1{fill-rule:evenodd;clip-rule:evenodd;fill:#FFFFFF;}
  </style>
  <path class="st0" d="M15,120h90c8.25,0,15-6.75,15-15V15c0-8.25-6.75-15-15-15H15C6.75,0,0,6.75,0,15v90C0,113.25,6.75,120,15,120
  L15,120z"/>
  <g>
    <polygon class="st1" points="61.72,51.01 61.72,90.15 72.75,90.15 90.83,66.01 90.83,90.15 101.85,90.15 101.85,51.01 90.83,51.01 72.75,75.14 72.75,51.01 61.72,51.01"/>
    <path class="st1" d="M54.49,61.76c-1.54-1.45-3.89-3.16-7.86-3.8c1.63-0.9,6.78-4.07,6.78-11.84c0-5.06-2.08-9.76-5.6-12.47
      c-4.88-3.8-11.39-3.8-14.73-3.8H18.15v60.3h20.25c5.24,0,10.76-0.9,15.28-4.88c4.16-3.71,5.15-8.68,5.15-12.2
      C58.82,69.9,58.1,65.2,54.49,61.76z M29.9,39.43h3.43c4.79,0,9.04,2.08,9.04,7.59c0,7.68-7.32,7.86-9.13,7.86H29.9V39.43z
      M43,78.94c-2.62,1.54-5.88,1.63-8.05,1.63H29.9V63.93h4.34c2.53,0,5.51,0,8.05,1.17c3.8,1.72,4.43,4.97,4.43,6.87
      C46.71,74.33,45.9,77.22,43,78.94z"/>
  </g>
</svg>
