<?xml version="1.0" standalone="no"?>
<!DOCTYPE svg PUBLIC "-//W3C//DTD SVG 20010904//EN"
 "http://www.w3.org/TR/2001/REC-SVG-20010904/DTD/svg10.dtd">
<svg version="1.0" xmlns="http://www.w3.org/2000/svg"
 width="1252.000000pt" height="300.000000pt" viewBox="0 0 1252.000000 626.000000"
 preserveAspectRatio="xMidYMid meet">

<g transform="translate(0.000000,626.000000) scale(0.100000,-0.100000)"
fill="#d60000" stroke="none">
<path d="M685 6249 c-324 -47 -574 -271 -658 -589 l-22 -85 0 -2445 0 -2445
22 -85 c84 -318 336 -544 658 -590 101 -14 11036 -14 11142 1 184 25 321 95
458 233 76 76 98 106 137 186 91 186 82 -101 86 2665 3 2686 6 2519 -55 2672
-55 138 -177 285 -304 366 -66 42 -155 81 -241 104 -59 17 -394 18 -5613 19
-3100 1 -5576 -2 -5610 -7z m1266 -1247 c172 -47 290 -137 358 -273 51 -102
64 -169 59 -299 -4 -92 -8 -115 -35 -171 -36 -75 -78 -130 -133 -173 -22 -16
-40 -33 -40 -37 0 -4 15 -10 33 -13 67 -13 158 -66 221 -129 68 -68 107 -137
132 -237 23 -90 15 -271 -15 -356 -48 -136 -156 -252 -296 -319 -137 -65 -162
-68 -652 -72 l-443 -4 0 1056 0 1057 368 -4 c333 -4 374 -7 443 -26z m8844
-677 c189 -52 368 -187 469 -353 212 -350 116 -808 -220 -1048 -139 -99 -265
-138 -449 -138 -155 0 -220 14 -350 78 -381 189 -543 651 -361 1031 113 235
303 386 556 441 82 17 271 11 355 -11z m-7149 -10 c33 -8 86 -23 117 -35 l57
-21 0 -196 0 -195 -31 27 c-77 64 -201 100 -314 92 -214 -16 -351 -167 -348
-387 2 -167 94 -297 253 -356 30 -11 76 -17 135 -17 105 0 178 22 256 78 l49
35 0 -191 0 -190 -45 -20 c-180 -80 -446 -79 -630 2 -195 85 -348 264 -402
469 -27 101 -24 302 5 405 84 291 316 487 612 515 92 8 205 2 286 -15z m1287
-1 c184 -36 341 -161 427 -339 46 -97 69 -196 77 -332 l6 -103 -511 0 -512 0
0 -34 c0 -19 9 -63 20 -98 76 -245 410 -302 589 -101 l50 56 176 -28 c96 -15
175 -30 175 -32 0 -3 -17 -37 -37 -77 -48 -91 -164 -210 -253 -259 -110 -60
-187 -79 -346 -84 -109 -4 -160 -2 -225 12 -262 53 -463 243 -529 501 -23 88
-27 280 -9 380 45 246 237 461 474 530 114 33 288 36 428 8z m-1488 -2173 l50
-16 3 -108 3 -108 -38 25 c-142 94 -317 23 -339 -136 -24 -172 157 -284 320
-199 l56 30 0 -104 0 -103 -47 -19 c-36 -13 -75 -18 -158 -18 -98 0 -116 3
-167 27 -164 77 -251 246 -220 428 22 130 94 230 203 283 93 46 226 53 334 18z
m1445 7 c178 -52 282 -261 236 -477 -19 -90 -50 -145 -116 -204 -68 -61 -139
-87 -238 -87 -88 0 -147 22 -199 73 l-33 31 0 -237 0 -237 -110 0 -110 0 0
565 0 565 110 0 110 0 0 -39 0 -39 30 28 c74 69 203 93 320 58z m2628 7 c99
-13 200 -94 248 -198 19 -43 28 -81 32 -143 l5 -84 -277 0 -278 0 7 -32 c19
-94 83 -149 172 -149 63 -1 100 14 145 58 l36 35 74 -11 c40 -7 83 -14 96 -17
l22 -4 -21 -41 c-30 -59 -102 -127 -167 -157 -52 -25 -67 -27 -182 -27 -117 0
-129 2 -182 28 -122 60 -201 176 -214 312 -20 225 113 408 317 434 63 8 80 8
167 -4z m-6166 -235 l3 -221 165 221 165 220 107 0 108 0 0 -370 0 -370 -105
0 -105 0 -2 223 -3 222 -168 -222 -167 -223 -105 0 -105 0 0 370 0 370 105 0
105 0 2 -220z m938 90 l0 -130 140 0 140 0 0 130 0 130 110 0 110 0 0 -370 0
-370 -110 0 -110 0 0 150 0 150 -140 0 -140 0 0 -150 0 -150 -105 0 -105 0 0
370 0 370 105 0 105 0 0 -130z m1930 40 l0 -90 -100 0 -100 0 0 -280 0 -280
-110 0 -110 0 0 280 0 280 -100 0 -100 0 0 90 0 90 310 0 310 0 0 -90z m1255
-110 c59 -110 111 -200 115 -200 4 0 50 90 104 200 l96 200 121 0 c66 0 119
-4 117 -8 -1 -5 -135 -259 -296 -565 l-294 -557 -119 0 c-65 0 -119 2 -119 5
0 3 59 114 132 247 72 133 131 247 131 253 0 5 -69 132 -153 280 -83 149 -160
287 -171 308 l-19 37 123 0 123 0 109 -200z m902 -7 c53 -111 99 -200 102
-198 4 2 49 94 101 204 l95 201 80 0 81 0 64 -352 c35 -194 65 -361 68 -371 4
-16 -4 -17 -104 -15 l-109 3 -27 175 c-15 96 -28 183 -30 192 -2 10 -43 -70
-92 -178 l-89 -195 -41 3 -40 3 -85 183 c-46 100 -87 182 -91 182 -4 0 -10
-21 -14 -47 -3 -27 -16 -110 -27 -185 l-22 -138 -103 0 c-93 0 -104 2 -104 18
0 16 113 651 125 700 5 22 9 23 85 20 l80 -3 97 -202z m1763 77 l0 -130 145 0
145 0 0 130 0 130 105 0 105 0 0 -370 0 -370 -105 0 -105 0 0 150 0 150 -145
0 -145 0 0 -150 0 -150 -105 0 -105 0 0 370 0 370 105 0 105 0 0 -130z m1220
40 l0 -90 -100 0 -100 0 0 -280 0 -280 -105 0 -105 0 0 280 0 280 -105 0 -105
0 0 90 0 90 310 0 310 0 0 -90z m320 -39 l0 -129 123 -3 c108 -4 129 -7 172
-30 30 -15 62 -42 80 -68 26 -38 30 -53 33 -124 3 -74 1 -87 -25 -137 -21 -40
-42 -63 -78 -85 l-48 -30 -234 -3 -233 -3 0 370 0 371 105 0 105 0 0 -129z
m700 -241 l0 -370 -105 0 -105 0 0 370 0 370 105 0 105 0 0 -370z"/>
<path d="M1550 4425 l0 -267 118 4 c95 3 127 8 170 27 100 45 147 129 141 254
-6 106 -40 159 -132 206 -63 32 -76 35 -182 39 l-115 5 0 -268z"/>
<path d="M1557 3833 c-4 -3 -7 -134 -7 -290 l0 -283 133 0 c317 1 447 88 447
299 0 119 -57 199 -173 243 -69 26 -381 51 -400 31z"/>
<path d="M10416 3838 c-22 -5 -55 -20 -73 -34 l-33 -25 0 25 c0 25 -2 26 -65
26 l-65 0 2 -347 3 -348 60 0 60 0 3 148 3 148 30 -25 c77 -65 190 -56 269 23
55 55 75 114 67 199 -13 148 -127 240 -261 210z m58 -112 c52 -22 76 -60 76
-122 0 -47 -4 -59 -33 -90 -64 -70 -171 -53 -209 34 -32 72 -4 147 66 178 40
17 59 17 100 0z"/>
<path d="M10680 3824 c0 -3 47 -90 105 -193 l105 -187 -80 -148 c-44 -81 -80
-152 -80 -157 0 -6 27 -9 66 -7 l65 3 184 348 183 347 -69 0 -69 0 -66 -132
-66 -131 -70 131 -71 132 -68 0 c-38 0 -69 -3 -69 -6z"/>
<path d="M9955 3495 c-31 -30 -32 -66 -2 -101 17 -20 33 -27 57 -27 39 0 80
40 80 79 0 35 -42 74 -80 74 -19 0 -40 -9 -55 -25z"/>
<path d="M4659 4044 c-103 -31 -185 -111 -214 -207 l-14 -47 320 0 319 0 -6
28 c-42 171 -234 279 -405 226z"/>
<path d="M4660 1968 c-50 -14 -97 -53 -121 -100 -17 -33 -20 -55 -17 -108 7
-121 78 -189 196 -190 66 0 113 21 152 68 91 111 41 287 -93 327 -57 17 -68
17 -117 3z"/>
<path d="M7355 1996 c-30 -13 -85 -69 -85 -86 0 -5 -3 -15 -6 -24 -5 -14 13
-16 166 -16 l171 0 -6 23 c-9 31 -36 67 -68 91 -34 25 -129 32 -172 12z"/>
<path d="M9680 1640 l0 -70 65 0 c100 0 133 24 123 91 -4 33 -43 49 -120 49
l-68 0 0 -70z"/>
</g>
</svg>
